<?xml version="1.0"
        standalone="no"?>
<!DOCTYPE svg PUBLIC "-//W3C//DTD SVG 1.1//EN"
        "http://www.w3.org/Graphics/SVG/1.1/DTD/svg11.dtd">
<svg
        xmlns:oryx="http://www.b3mn.org/oryx"
        xmlns="http://www.w3.org/2000/svg"
        width="300"
        height="50"
        version="1.0">
    <g oryx:minimumSize="28 50">
        <defs>
            <marker id="shape"
                    refX="-2"
                    refY="0"
                    markerWidth="24"
                    markerHeight="24">
                <svg width="20" height="24" viewBox="0 0 32 32">
                    <path class="clr-i-outline clr-i-outline-path-1"
                          d="M30.4 17.6c-1.8-1.9-4.2-3.2-6.7-3.7c-1.1-.3-2.2-.5-3.3-.6c2.8-3.3 2.3-8.3-1-11.1s-8.3-2.3-11.1 1s-2.3 8.3 1 11.1c.6.5 1.2.9 1.8 1.1v2.2l-1.6-1.5c-1.4-1.4-3.7-1.4-5.2 0c-1.4 1.4-1.5 3.6-.1 5l4.6 5.4c.2 1.4.7 2.7 1.4 3.9c.5.9 1.2 1.8 1.9 2.5v1.9c0 .6.4 1 1 1h13.6c.5 0 1-.5 1-1v-2.6c1.9-2.3 2.9-5.2 2.9-8.1v-5.8c.1-.4 0-.6-.2-.7zm-22-9.4c0-3.3 2.7-5.9 6-5.8c3.3 0 5.9 2.7 5.8 6c0 1.8-.8 3.4-2.2 4.5v-5a3.4 3.4 0 0 0-3.4-3.2c-1.8-.1-3.4 1.4-3.4 3.2v5.2c-1.7-1-2.7-2.9-2.8-4.9zM28.7 24c.1 2.6-.8 5.1-2.5 7.1c-.2.2-.4.4-.4.7v2.1H14.2v-1.4c0-.3-.2-.6-.4-.8c-.7-.6-1.3-1.3-1.8-2.2c-.6-1-1-2.2-1.2-3.4c0-.2-.1-.4-.2-.6l-4.8-5.7c-.3-.3-.5-.7-.5-1.2c0-.4.2-.9.5-1.2c.7-.6 1.7-.6 2.4 0l2.9 2.9v3l1.9-1V7.9c.1-.7.7-1.3 1.5-1.2c.7 0 1.4.5 1.4 1.2v11.5l2 .4v-4.6c.1-.1.2-.1.3-.2c.7 0 1.4.1 2.1.2v5.1l1.6.3v-5.2l1.2.3c.5.1 1 .3 1.5.5v5l1.6.3v-4.6c.9.4 1.7 1 2.4 1.7l.1 5.4z"
                          fill="#cccccc" oryx:anchors="left top" stroke="#cccccc"/>
                </svg>
            </marker>

            <radialGradient id="transparent"
                            cx="10%"
                            cy="10%"
                            r="100%"
                            fx="10%"
                            fy="10%">
                <stop offset="0%"
                      stop-color="#ffffff"
                      stop-opacity="0"/>
                <stop offset="100%"
                      stop-color="#ffffff"
                      stop-opacity="0"/>
            </radialGradient>
        </defs>

        <rect id="bg_frame"
              oryx:anchors="left top"
              x="0"
              y="0"
              width="150"
              height="26"
              stroke="none"
              fill="url(#transparent)"/>

        <g id="a">
            <rect id="label"
                  oryx:anchors="left top"
                  x="0"
                  y="0"
                  width="100"
                  height="24"
                  stroke="none"
                  fill="url(#transparent)"/>
            <text id="label_text"
                  oryx:anchors="left top"
                  oryx:align="middle left"
                  font-size="11"
                  x="0"
                  y="9"
                  stroke="black"/>
        </g>

        <g id="b">
            <rect id="input"
                  oryx:anchors="left top"
                  fill="#F5F5F5"
                  stroke-dasharray="10,2"
                  x="120"
                  y="0"
                  height="48"
                  width="150"/>
            <path id="input_dependent"
                  anchors="left top"
                  d="M7 5  L35 5  L35 31  L7 31  z"
                  refX="7"
                  refY="5"
                  stroke="#cccccc"
                  fill="none"
                  marker-start="url(#shape)"
                  style="opacity:0.9999;"/>
            <text id="input_text"
                  anchors="left top"
                  align="middle left"
                  font-size="11"
                  x="40"
                  y="24"
                  refX="35"
                  refY="12"
                  stroke="black"
                  fill="gray"
                  font-style="italic"
                  stroke-width="0pt"
                  letter-spacing="-0.01px"
                  oryx:fontSize="11"
                  transform="rotate(0 40 24)"
                  text-anchor="start">
                <tspan dy="4"
                       x="40"
                       y="24">
                </tspan>
            </text>
        </g>

        <g id="c"
           transform="translate(1,8)">
            <path id="mandatory_Indicator"
                  oryx:anchors="middle left"
                  d='m14.30275,11.94655l-2.49912,0l-0.77223,2.37422l-0.77227,-2.37422l-2.49912,0l2.02183,-1.46721l-0.77229,-2.37417l2.02184,1.46732l2.02183,-1.46732l-0.77232,2.37417l2.02184,1.46721z'
                  stroke="#ff0000"
                  fill="#ff0000"
                  display="none"/>
        </g>

        <g id="d">
            <path id="feedback_Indicator"
                  oryx:anchors="left top"
                  d='M300,15 320,15 310,0 Z M310 4 L310 10 Z M310 11 L310 13 Z' stroke="black"
                  fill="#ff0000"
                  display="none"/>
        </g>

        <g id="e">
            <rect id="desc"
                  oryx:anchors="left top"
                  stroke="none"
                  fill="url(#transparent)"
                  x="120"
                  y="0"
                  height="24"
                  width="150"
                  display="none"/>
            <text id="desc_text"
                  oryx:anchors="left top"
                  oryx:align="middle left"
                  font-size="11"
                  x="120"
                  y="9"
                  stroke="black"
                  fill="gray"
                  font-style="italic"
                  display="none"/>
        </g>
    </g>
</svg>