<?xml version="1.0"
        standalone="no"?>
<!DOCTYPE svg PUBLIC "-//W3C//DTD SVG 1.1//EN"
        "http://www.w3.org/Graphics/SVG/1.1/DTD/svg11.dtd">
<svg
        xmlns:oryx="http://www.b3mn.org/oryx"
        xmlns="http://www.w3.org/2000/svg"
        width="300"
        height="50"
        version="1.0">
    <g oryx:minimumSize="28 50">
        <defs>
            <marker id="shape"
                    refX="-2"
                    refY="0"
                    markerWidth="24"
                    markerHeight="24">
                <svg width="22" height="22" viewBox="0 0 64 64">
                    <path d="M42.256 33.869c1.188-2.404 2.877-3.59 3.914-4.123a4.673 4.673 0 0 0 2.092 1.588c2.43.916 5.115-.383 5.998-2.902a5.006 5.006 0 0 0-.221-3.842a4.753 4.753 0 0 0 2.549-2.793a5.001 5.001 0 0 0 .029-3.23a4.754 4.754 0 0 0 2.674-2.846a5.007 5.007 0 0 0-.32-4.033a4.75 4.75 0 0 0 2.744-2.877c.885-2.52-.367-5.305-2.797-6.221a4.445 4.445 0 0 0-1.123-.264C56.844 2.111 55.596 2 54 2c-15.322 0-27.529 8.781-33.377 22.541C13.008 42.467 13.441 57.734 2 57.734C2 60.09 3.918 62 6.289 62c2.369 0 4.291-1.91 4.291-4.266c0 2.355 1.922 4.266 4.291 4.266s4.291-1.91 4.291-4.266c0 2.355 1.922 4.266 4.291 4.266s4.291-1.91 4.291-4.266c0 2.355 1.922 4.266 4.291 4.266c2.371 0 4.291-1.91 4.291-4.266c0 2.355 1.922 4.266 4.291 4.266s4.291-1.91 4.291-4.266c0 2.355 1.922 4.266 4.291 4.266c2.371 0 4.291-1.91 4.291-4.266c0 2.355 1.922 4.266 4.291 4.266S62 60.043 62 57.688c0 0-28.793-4.481-19.744-23.819M57.869 3.801c1.844.695 2.795 2.811 2.125 4.725c-.516 1.469-1.838 2.387-3.26 2.422a3.783 3.783 0 0 1 .996 4.029c-.504 1.43-1.771 2.344-3.152 2.42c1.01.979 1.416 2.523.914 3.955s-1.771 2.344-3.15 2.422a3.782 3.782 0 0 1 .912 3.953c-.672 1.916-2.711 2.902-4.557 2.205c-1.844-.695 1.451-1.209 2.123-3.123c.494-1.408-.568-3.18-.432-3.742c.004-.01.004-.018.008-.027c.002-.01.008-.018.012-.027c.242-.521 2.154-1.17 2.648-2.578s-.568-3.182-.43-3.742a.138.138 0 0 1 .008-.029c.002-.01.008-.018.012-.025c.242-.521 2.154-1.172 2.648-2.58c.516-1.467-.66-3.328-.406-3.805c.102-.535 2.156-1.18 2.67-2.645c.672-1.916-1.535-4.505.311-3.808M21.148 31.236c1.795-5.828 4.537-11.391 8.564-15.904c2.982-3.344 6.625-6.084 10.656-7.902a34.173 34.173 0 0 1 10.344-2.838c1.393-.152 2.832-.264 4.232-.139c.771.066 1.418.617 1.418 1.471c0 .75-.646 1.537-1.418 1.471c-1.105-.098-2.24-.037-3.344.055c-.537.045-1.073.104-1.608.175l-.298.044l-.439.07a31.964 31.964 0 0 0-7.235 2.135c-.033.015-.051.021-.069.029l-.038.018a30.473 30.473 0 0 0-3.522 1.862c-2.115 1.307-3.729 2.576-5.48 4.355c-4.289 4.357-7.191 9.918-9.029 15.881c-.552 1.799-3.292 1.028-2.734-.783m7.793.782c-.289.742-.934 1.26-1.744 1.027c-.68-.195-1.281-1.064-.99-1.809c2.006-5.139 4.863-10.043 9.02-13.617c3.338-2.873 7.322-4.922 11.613-5.689c1.814-.324 3.771-.572 5.615-.32c.768.105 1.418.59 1.418 1.471c0 .723-.648 1.578-1.418 1.473c-.99-.137-2.021-.098-3.012-.02c-.354.027-.705.063-1.055.105l-.109.015l-.131.021a22.695 22.695 0 0 0-4.5 1.185a21.673 21.673 0 0 0-.926.372l-.215.097a23.066 23.066 0 0 0-2.941 1.623c-2.143 1.404-4.016 3.141-5.705 5.27c-2.078 2.618-3.693 5.657-4.92 8.796m5.674 0c-.262.754-.957 1.252-1.744 1.027c-.703-.201-1.252-1.053-.992-1.809c1.904-5.518 5.635-9.885 10.891-12.115c2.225-.945 4.787-1.607 7.213-1.541c1.826.049 1.83 2.99 0 2.941c-.618-.017-1.242.048-1.854.129l-.306.047a20.521 20.521 0 0 0-1.625.348c-.828.217-1.646.484-2.439.814l-.228.097c-.087.039-.175.078-.261.12a16.857 16.857 0 0 0-2.049 1.138c-.969.633-1.605 1.129-2.443 1.975c-1.893 1.903-3.264 4.225-4.163 6.829m3.305 1.173c-.705-.43-.844-1.291-.508-2.014c1.848-3.973 5.93-7.061 10.301-7.016c1.828.018 1.83 2.959 0 2.939a7.6 7.6 0 0 0-.625.039l-.083.009c-.787.123-1.563.329-2.306.63a9.388 9.388 0 0 0-.541.25c-.219.115-.436.23-.645.361c-.502.309-.879.568-1.266.928c-1.029.949-1.789 2.059-2.387 3.344c-.335.724-1.313.911-1.94.53"
                          oryx:anchors="left top" stroke="#cccccc" fill="#cccccc"/>
                </svg>
            </marker>

            <radialGradient id="transparent"
                            cx="10%"
                            cy="10%"
                            r="100%"
                            fx="10%"
                            fy="10%">
                <stop offset="0%"
                      stop-color="#ffffff"
                      stop-opacity="0"/>
                <stop offset="100%"
                      stop-color="#ffffff"
                      stop-opacity="0"/>
            </radialGradient>
        </defs>

        <rect id="bg_frame"
              oryx:anchors="left top"
              x="0"
              y="0"
              width="150"
              height="26"
              stroke="none"
              fill="url(#transparent)"/>

        <g id="a">
            <rect id="label"
                  oryx:anchors="left top"
                  x="0"
                  y="0"
                  width="100"
                  height="24"
                  stroke="none"
                  fill="url(#transparent)"/>
            <text id="label_text"
                  oryx:anchors="left top"
                  oryx:align="middle left"
                  font-size="11"
                  x="0"
                  y="9"
                  stroke="black"/>
        </g>

        <g id="b">
            <rect id="input"
                  oryx:anchors="left top"
                  fill="#F5F5F5"
                  stroke-dasharray="10,2"
                  x="120"
                  y="0"
                  height="48"
                  width="150"/>
            <path id="input_dependent"
                  anchors="left top"
                  d="M7 5  L35 5  L35 31  L7 31  z"
                  refX="7"
                  refY="5"
                  stroke="#cccccc"
                  fill="none"
                  marker-start="url(#shape)"
                  style="opacity:0.9999;"/>
            <text id="input_text"
                  anchors="left top"
                  align="middle left"
                  font-size="11"
                  x="40"
                  y="24"
                  refX="35"
                  refY="12"
                  stroke="black"
                  fill="gray"
                  font-style="italic"
                  stroke-width="0pt"
                  letter-spacing="-0.01px"
                  oryx:fontSize="11"
                  transform="rotate(0 40 24)"
                  text-anchor="start">
                <tspan dy="4"
                       x="40"
                       y="24">
                </tspan>
            </text>
        </g>

        <g id="c"
           transform="translate(1,8)">
            <path id="mandatory_Indicator"
                  oryx:anchors="middle left"
                  d='m14.30275,11.94655l-2.49912,0l-0.77223,2.37422l-0.77227,-2.37422l-2.49912,0l2.02183,-1.46721l-0.77229,-2.37417l2.02184,1.46732l2.02183,-1.46732l-0.77232,2.37417l2.02184,1.46721z'
                  stroke="#ff0000"
                  fill="#ff0000"
                  display="none"/>
        </g>

        <g id="d">
            <path id="feedback_Indicator"
                  oryx:anchors="left top"
                  d='M300,15 320,15 310,0 Z M310 4 L310 10 Z M310 11 L310 13 Z' stroke="black"
                  fill="#ff0000"
                  display="none"/>
        </g>

        <g id="e">
            <rect id="desc"
                  oryx:anchors="left top"
                  stroke="none"
                  fill="url(#transparent)"
                  x="120"
                  y="0"
                  height="24"
                  width="150"
                  display="none"/>
            <text id="desc_text"
                  oryx:anchors="left top"
                  oryx:align="middle left"
                  font-size="11"
                  x="120"
                  y="9"
                  stroke="black"
                  fill="gray"
                  font-style="italic"
                  display="none"/>
        </g>
    </g>
</svg>