<?xml version="1.0" standalone="no"?>
<!DOCTYPE svg PUBLIC "-//W3C//DTD SVG 20010904//EN"
 "http://www.w3.org/TR/2001/REC-SVG-20010904/DTD/svg10.dtd">
<svg version="1.0" xmlns="http://www.w3.org/2000/svg"
 width="1024.000000pt" height="1024.000000pt" viewBox="0 0 1024.000000 1024.000000"
 preserveAspectRatio="xMidYMid meet">
<metadata>
Created by potrace 1.14, written by Peter Selinger 2001-2017
</metadata>
<g transform="translate(0.000000,1024.000000) scale(0.100000,-0.100000)"
fill="#000000" stroke="none">
<path d="M2288 7929 c-47 -12 -96 -48 -120 -87 -23 -37 -31 -125 -16 -182 8
-32 157 -677 162 -704 3 -12 44 -187 91 -391 48 -203 88 -383 89 -399 l1 -29
-183 -1 c-101 -1 -187 1 -191 4 -4 3 -180 281 -390 618 -252 402 -395 622
-417 640 -53 42 -98 48 -389 46 -257 -1 -272 -2 -313 -23 -23 -12 -55 -39 -71
-61 -43 -59 -46 -103 -15 -227 14 -58 27 -113 29 -122 2 -9 54 -214 115 -455
61 -241 109 -440 108 -441 -2 -1 -25 -9 -51 -19 -86 -32 -141 -68 -214 -142
-117 -118 -174 -259 -170 -423 l2 -88 -54 -29 c-133 -69 -241 -215 -268 -362
-14 -73 -6 -194 16 -262 57 -167 184 -286 364 -341 57 -17 109 -19 771 -19
l710 0 65 -32 c36 -17 107 -50 156 -73 50 -23 131 -62 180 -85 100 -47 211
-99 325 -152 77 -36 228 -100 290 -124 95 -35 346 -108 420 -120 14 -3 59 -11
100 -19 41 -7 100 -17 130 -21 30 -3 63 -8 74 -10 71 -13 331 -18 1031 -18
l800 -1 25 -50 c35 -73 151 -184 230 -221 36 -17 83 -35 105 -39 22 -5 43 -9
48 -10 4 -2 51 -3 105 -4 l99 -1 19 -42 c22 -49 52 -81 97 -105 29 -15 82 -17
567 -17 294 0 555 3 580 7 145 21 286 116 364 245 37 62 76 170 76 211 l0 26
138 2 c222 3 502 21 588 37 11 2 44 7 74 10 30 4 69 9 85 11 60 8 302 56 385
75 47 11 94 22 106 24 37 7 267 77 374 114 164 55 385 147 437 181 164 105
261 275 269 471 9 228 -112 427 -336 549 -37 21 -63 47 -112 116 -74 105 -262
297 -368 377 -297 222 -641 356 -987 385 -49 4 -1044 7 -2213 7 l-2125 1 -110
172 c-60 95 -126 198 -146 230 -38 60 -289 454 -340 533 -33 51 -201 315 -380
598 -118 187 -155 232 -208 255 -30 12 -570 18 -613 6z m445 -402 c2 -7 67
-110 143 -230 77 -120 146 -229 154 -242 8 -14 57 -92 109 -173 52 -81 109
-169 126 -197 17 -27 48 -75 67 -105 154 -239 218 -342 218 -350 0 -4 3 -10 8
-12 4 -1 65 -94 136 -206 71 -113 143 -213 160 -226 17 -13 302 -159 634 -325
331 -166 602 -302 602 -304 0 -1 -170 -2 -377 -2 l-378 1 -275 123 c-151 68
-293 131 -315 141 -22 10 -87 39 -145 65 -58 26 -118 53 -135 60 -275 124
-437 195 -445 195 -16 0 -25 31 -64 200 -50 217 -115 501 -136 590 -53 226
-72 307 -75 325 -6 25 -71 307 -92 394 -8 36 -16 72 -18 80 -2 9 -13 54 -24
101 -12 47 -21 91 -21 98 0 17 136 17 143 -1z m-1620 -529 c48 -74 97 -153
143 -226 21 -35 46 -73 54 -86 15 -25 77 -125 95 -154 6 -10 63 -101 128 -204
64 -103 117 -189 117 -191 0 -1 -106 -2 -235 -2 l-234 0 -46 190 c-25 105 -50
201 -55 215 -4 14 -23 86 -40 160 -17 74 -36 149 -41 165 -13 44 -39 159 -39
173 0 8 20 12 60 12 l60 0 33 -52z m1482 -1259 c2 -3 12 -41 21 -85 20 -100
48 -163 83 -191 15 -12 292 -139 617 -283 324 -144 617 -275 652 -291 35 -16
65 -29 67 -29 2 0 39 -16 82 -36 148 -69 73 -64 1011 -64 l855 0 47 26 c133
72 137 263 7 338 -23 13 -307 157 -632 320 -324 162 -583 295 -575 296 58 2
3500 -2 3520 -4 14 -2 40 -4 58 -5 l32 -1 -24 -47 c-76 -150 -73 -341 7 -487
44 -81 126 -162 209 -206 117 -63 113 -62 588 -65 l436 -3 49 -25 c107 -54
149 -149 110 -244 -30 -72 -70 -100 -230 -163 -165 -64 -399 -141 -535 -175
-70 -18 -258 -57 -328 -70 -48 -8 -96 -17 -107 -19 -11 -2 -47 -7 -80 -11 -33
-5 -67 -9 -75 -10 -18 -3 -137 -15 -200 -21 -25 -2 -145 -7 -267 -10 l-223 -7
-1 29 c-4 146 -135 335 -283 407 -115 56 -125 57 -706 58 -295 0 -549 -3 -565
-7 -49 -11 -113 -70 -126 -114 l-12 -40 -71 -1 c-39 -1 -91 -3 -115 -5 -167
-15 -318 -115 -404 -266 l-32 -57 -855 3 c-470 2 -866 6 -880 9 -14 3 -52 9
-85 12 -84 10 -90 11 -185 29 -157 30 -316 77 -473 140 -112 45 -165 69 -406
182 -270 128 -272 129 -267 144 2 8 16 42 30 75 13 33 28 80 31 105 3 25 7 53
9 63 2 17 -9 121 -18 162 -9 42 -55 132 -94 184 -76 100 -213 180 -339 197
-26 4 -301 7 -611 7 -630 0 -583 -6 -576 74 7 94 77 168 172 181 52 8 1679 8
1687 1z m6400 -199 c33 -18 62 -36 65 -39 3 -3 25 -19 50 -35 39 -26 129 -96
168 -133 17 -16 35 -15 -219 -15 -180 0 -211 2 -237 17 -97 58 -75 212 33 237
41 9 82 0 140 -32z m-7094 -468 c67 -27 95 -132 52 -190 -42 -58 -21 -56 -743
-57 -366 0 -679 1 -696 3 -58 7 -104 63 -104 127 0 57 26 96 78 118 40 16
1373 16 1413 -1z m5404 -819 c11 -6 31 -23 45 -38 25 -26 25 -29 28 -228 3
-226 -3 -254 -65 -290 -29 -17 -61 -18 -405 -18 -205 0 -389 0 -408 0 l-35 1
1 293 c1 160 2 292 3 293 0 0 184 0 409 -1 284 0 413 -4 427 -12z m-1235 -283
l0 -130 -72 1 c-83 1 -134 19 -162 55 -27 37 -30 92 -9 134 26 51 72 70 166
70 l77 0 0 -130z"/>
<path d="M1498 2683 c-16 -20 -16 -346 0 -366 10 -12 68 -14 350 -13 185 0
343 5 350 9 9 6 12 55 12 187 0 161 -2 180 -17 188 -10 5 -168 9 -350 9 -273
0 -335 -2 -345 -14z"/>
<path d="M2480 2685 c-15 -18 -16 -351 -1 -368 16 -20 1838 -19 1850 1 4 7 8
92 7 188 -1 133 -4 177 -14 183 -7 4 -423 8 -923 8 -703 0 -911 -3 -919 -12z"/>
</g>
</svg>
